HIERARCHY
ROOT pelvis
{
	OFFSET 0.000000 0.000000 0.938642
	CHANNELS 6 Xposition Yposition Zposition Xrotation Yrotation Zrotation
	JOINT spine
	{
		OFFSET 0.000000 0.000000 0.000000
		CHANNELS 6 Xposition Yposition Zposition Xrotation Yrotation Zrotation
		JOINT spine.001
		{
			OFFSET 0.000000 -0.015985 0.305005
			CHANNELS 3 Xrotation Yrotation Zrotation
			JOINT neck
			{
				OFFSET 0.000000 0.037222 0.303147
				CHANNELS 6 Xposition Yposition Zposition Xrotation Yrotation Zrotation
				JOINT face
				{
					OFFSET 0.000000 0.003790 0.217149
					CHANNELS 6 Xposition Yposition Zposition Xrotation Yrotation Zrotation
					End Site
					{
						OFFSET 0.000000 -0.029044 -0.009351
					}
				}
			}
			JOINT shoulder.L
			{
				OFFSET 0.000000 0.037222 0.303147
				CHANNELS 6 Xposition Yposition Zposition Yrotation Xrotation Zrotation
				JOINT upper_arm.L
				{
					OFFSET 0.175021 0.000000 0.000000
					CHANNELS 6 Xposition Yposition Zposition Xrotation Yrotation Zrotation
					JOINT forearm.L
					{
						OFFSET 0.288264 0.000138 0.001143
						CHANNELS 6 Xposition Yposition Zposition Xrotation Yrotation Zrotation
						End Site
						{
							OFFSET 0.258671 -0.004389 -0.001571
						}
					}
				}
			}
			JOINT shoulder.R
			{
				OFFSET 0.000000 0.037222 0.303147
				CHANNELS 6 Xposition Yposition Zposition Yrotation Xrotation Zrotation
				JOINT upper_arm.R
				{
					OFFSET -0.175021 0.000000 0.000000
					CHANNELS 6 Xposition Yposition Zposition Xrotation Yrotation Zrotation
					JOINT forearm.R
					{
						OFFSET -0.284397 0.000138 0.001143
						CHANNELS 6 Xposition Yposition Zposition Xrotation Yrotation Zrotation
						End Site
						{
							OFFSET -0.262525 -0.004456 -0.001572
						}
					}
				}
			}
		}
	}
	JOINT pelvis.L
	{
		OFFSET 0.000000 0.000000 0.000000
		CHANNELS 6 Xposition Yposition Zposition Yrotation Xrotation Zrotation
		End Site
		{
			OFFSET 0.114097 0.000000 0.000000
		}
	}
	JOINT pelvis.R
	{
		OFFSET 0.000000 0.000000 0.000000
		CHANNELS 6 Xposition Yposition Zposition Yrotation Xrotation Zrotation
		End Site
		{
			OFFSET -0.114097 0.000000 0.000000
		}
	}
	JOINT thigh.L
	{
		OFFSET 0.114097 0.000000 0.000000
		CHANNELS 6 Xposition Yposition Zposition Xrotation Yrotation Zrotation
		JOINT shin.L
		{
			OFFSET 0.022827 0.000000 -0.435571
			CHANNELS 6 Xposition Yposition Zposition Xrotation Yrotation Zrotation
			JOINT foot.L
			{
				OFFSET 0.021939 0.000000 -0.418615
				CHANNELS 3 Xrotation Yrotation Zrotation
				End Site
				{
					OFFSET 0.019111 -0.194854 -0.081822
				}
			}
			JOINT heel.02.L
			{
				OFFSET 0.021939 0.000000 -0.418615
				CHANNELS 3 Xrotation Yrotation Zrotation
				End Site
				{
					OFFSET 0.101182 0.041096 -0.078095
				}
			}
		}
	}
	JOINT thigh.R
	{
		OFFSET -0.114097 0.000000 0.000000
		CHANNELS 6 Xposition Yposition Zposition Xrotation Yrotation Zrotation
		JOINT shin.R
		{
			OFFSET -0.022196 0.000000 -0.423533
			CHANNELS 6 Xposition Yposition Zposition Xrotation Yrotation Zrotation
			JOINT foot.R
			{
				OFFSET -0.022464 0.000000 -0.428639
				CHANNELS 3 Xrotation Yrotation Zrotation
				End Site
				{
					OFFSET -0.019747 -0.201338 -0.084545
				}
			}
			JOINT heel.02.R
			{
				OFFSET -0.022464 0.000000 -0.428639
				CHANNELS 3 Xrotation Yrotation Zrotation
				End Site
				{
					OFFSET -0.099475 0.041096 -0.080204
				}
			}
		}
	}
}
MOTION
Frames: 8
Frame Time: 0.041667
0.067443 -0.059728 0.923317 -0.000000 0.000000 1.411948 -0.000000 0.000000 -0.000000 -8.959289 3.202160 0.420521 9.974630 0.596842 4.866785 0.000000 0.037222 0.303147 19.027889 -0.880959 -3.460309 -0.000000 0.003790 0.217149 3.448599 -0.000000 0.000001 0.000000 0.037222 0.303147 2.275873 0.005547 -0.279331 0.175021 0.000000 -0.000000 4.242202 76.957196 -5.380656 0.288264 0.000138 0.001143 2.114402 12.621011 -17.959848 0.000000 0.037222 0.303147 2.334020 0.005836 -0.286459 -0.175021 0.000000 0.000000 46.622332 -82.108129 52.652573 -0.284397 0.000138 0.001143 1.732485 -13.974956 12.726061 0.000000 0.000000 0.000000 2.452889 0.000000 -0.000020 0.000000 0.000000 0.000000 2.452919 -0.000000 -0.000000 0.113992 0.000000 -0.004883 6.891851 4.984276 0.061444 0.022827 0.000000 -0.435571 3.563979 -3.381740 0.291630 -12.628280 -3.508949 3.940509 -18.897381 49.860852 37.847847 -0.113992 0.000000 0.004883 8.050395 -0.214199 -0.407565 -0.022196 -0.000000 -0.423533 0.110897 5.974634 -0.011568 -3.595705 4.390510 -8.733415 -16.209081 -50.405147 -41.925542 
0.067691 -0.059204 0.924413 -0.000000 0.000000 0.821591 0.000000 0.000000 0.000000 -8.778671 3.228175 0.418765 9.977826 0.558213 4.551267 0.000000 0.037222 0.303147 18.203453 -0.736265 -2.865139 -0.000000 0.003790 0.217149 4.307309 -0.000000 0.000001 0.000000 0.037222 0.303148 2.701403 0.007819 -0.331586 0.175021 -0.000000 -0.000000 7.063412 76.012492 -9.068290 0.288264 0.000138 0.001143 2.180559 12.926429 -18.066947 0.000000 0.037222 0.303147 2.759551 0.008159 -0.338706 -0.175021 -0.000000 -0.000000 49.673811 -83.008368 55.235207 -0.284397 0.000138 0.001143 1.730522 -12.888049 14.011694 0.000000 0.000000 0.000000 2.388179 -0.000001 0.000060 0.000000 0.000000 0.000000 2.388178 -0.000000 0.000000 0.113998 0.000000 -0.004754 7.564305 5.373987 0.041589 0.022827 0.000000 -0.435571 2.198287 -3.626448 0.184515 -11.711403 -3.682637 4.511540 -18.122502 49.488440 37.865770 -0.113998 0.000000 0.004754 7.957166 -0.209913 -0.403125 -0.022196 0.000000 -0.423533 0.190028 5.880432 -0.019667 -4.468047 4.257349 -8.095705 -16.688377 -50.452869 -41.375496 
0.068257 -0.059422 0.925179 -0.000000 0.000000 0.284186 -0.000000 0.000000 0.000000 -8.702571 3.254485 0.419981 9.978653 0.547517 4.463852 -0.000000 0.037222 0.303147 17.595541 -0.734636 -2.571155 -0.000000 0.003790 0.217149 5.002387 -0.000002 -0.000001 0.000000 0.037222 0.303147 2.948740 0.009316 -0.361939 0.175021 -0.000000 -0.000000 8.147052 75.538231 -10.536351 0.288264 0.000138 0.001143 2.245763 13.177080 -18.247313 0.000000 0.037222 0.303147 3.006846 0.009686 -0.369056 -0.175021 -0.000000 0.000000 52.351658 -83.496317 57.699218 -0.284397 0.000138 0.001143 1.722849 -12.366310 14.647358 0.000000 -0.000000 0.000000 2.352201 0.000001 -0.000054 0.000000 -0.000000 0.000000 2.352201 -0.000000 -0.000000 0.114001 -0.000000 -0.004683 8.085145 5.745004 0.018117 0.022827 0.000000 -0.435571 1.240908 -3.864671 0.106714 -11.081189 -3.813135 4.935467 -17.613369 49.240377 37.874454 -0.114001 0.000000 0.004683 7.915440 -0.187645 -0.402542 -0.022196 -0.000000 -0.423533 0.229300 5.818508 -0.023607 -5.122789 4.098754 -7.509522 -17.050539 -50.492915 -40.966915 
0.069049 -0.060310 0.925575 -0.000000 0.000000 -0.161694 0.000000 0.000000 -0.000000 -8.725147 3.278429 0.423729 9.977407 0.562940 4.589809 0.000000 0.037222 0.303148 17.235521 -0.848538 -2.552075 0.000000 0.003790 0.217149 5.515029 -0.000000 0.000001 0.000000 0.037222 0.303147 3.021173 0.009778 -0.370775 0.175021 0.000000 -0.000000 8.077113 75.561222 -10.442330 0.288264 0.000138 0.001143 2.288388 13.347508 -18.350717 0.000000 0.037222 0.303147 3.079282 0.010158 -0.377946 -0.175021 0.000000 -0.000000 54.064294 -83.566531 59.463299 -0.284397 0.000138 0.001143 1.715304 -12.349668 14.598609 0.000000 -0.000000 0.000000 2.341746 0.000000 -0.000013 0.000000 -0.000000 0.000000 2.341746 -0.000000 0.000000 0.114002 -0.000000 -0.004662 8.435185 6.057111 -0.004235 0.022827 0.000000 -0.435571 0.725957 -4.060501 0.063663 -10.743528 -3.893744 5.186369 -17.392332 49.132153 37.878645 -0.114002 -0.000000 0.004662 7.926367 -0.147346 -0.405885 -0.022196 0.000000 -0.423533 0.228927 5.786872 -0.023506 -5.523147 3.940022 -7.031308 -17.249441 -50.512053 -40.729740 
0.069730 -0.061247 0.925745 -0.000000 0.000000 -0.479752 0.000000 0.000000 0.000000 -8.768272 3.299209 0.427679 9.976014 0.579864 4.727926 0.000000 0.037222 0.303147 17.021716 -0.941442 -2.450458 -0.000000 0.003790 0.217149 5.904883 -0.000001 -0.000001 0.000000 0.037222 0.303147 3.024984 0.009801 -0.371182 0.175021 0.000000 0.000000 7.892047 75.689616 -10.181647 0.288264 0.000138 0.001143 2.302798 13.489884 -18.251807 0.000000 0.037222 0.303147 3.083132 0.010183 -0.378349 -0.175021 0.000000 0.000000 54.655474 -83.508843 60.141660 -0.284397 0.000138 0.001143 1.717744 -12.532426 14.367837 0.000000 -0.000000 -0.000000 2.336443 0.000000 -0.000021 0.000000 -0.000000 -0.000000 2.336442 -0.000000 0.000000 0.114002 0.000000 -0.004652 8.680955 6.277490 -0.021181 0.022827 0.000000 -0.435571 0.413856 -4.192358 0.036767 -10.515323 -3.930734 5.325260 -17.284120 49.082873 37.894904 -0.114002 0.000000 0.004651 7.959567 -0.106755 -0.410407 -0.022196 0.000000 -0.423533 0.216082 5.763913 -0.022144 -5.771381 3.824195 -6.702915 -17.390925 -50.540166 -40.612045 
0.070132 -0.061839 0.925783 -0.000000 0.000000 -0.657458 0.000000 0.000000 0.000000 -8.786963 3.315405 0.430329 9.975801 0.582202 4.747010 -0.000000 0.037222 0.303148 16.881856 -0.911079 -1.941483 0.000000 0.003790 0.217149 6.180793 -0.000000 0.000001 0.000000 0.037222 0.303147 3.023732 0.009795 -0.371055 0.175021 -0.000000 0.000000 7.981468 75.684035 -10.297165 0.288264 0.000138 0.001143 2.313945 13.682617 -18.050102 -0.000000 0.037222 0.303147 3.081915 0.010175 -0.378235 -0.175021 -0.000000 0.000000 54.265505 -83.499336 59.735400 -0.284397 0.000138 0.001143 1.740608 -12.732804 14.310010 -0.000000 0.000000 0.000000 2.330093 0.000000 -0.000011 -0.000000 0.000000 0.000000 2.330093 -0.000000 0.000000 0.114003 0.000000 -0.004639 8.869007 6.404832 -0.031579 0.022827 0.000000 -0.435571 0.141971 -4.260479 0.012695 -10.304665 -3.942104 5.412070 -17.155601 49.023833 37.912580 -0.114003 -0.000000 0.004639 7.995162 -0.080654 -0.414067 -0.022196 -0.000000 -0.423533 0.205518 5.739494 -0.021018 -5.969281 3.767059 -6.515277 -17.543968 -50.593329 -40.566126 
0.070345 -0.062130 0.925711 -0.000000 0.000000 -0.712892 -0.000000 0.000000 -0.000000 -8.791164 3.333018 0.432741 9.976641 0.572904 4.671258 -0.000000 0.037222 0.303147 16.793232 -0.795649 -1.083265 0.000000 0.003790 0.217149 6.323843 -0.000000 -0.000001 -0.000000 0.037222 0.303147 3.011817 0.009717 -0.369614 0.175021 0.000000 -0.000000 8.035206 75.602858 -10.380868 0.288264 0.000138 0.001143 2.347141 13.947848 -17.930913 -0.000000 0.037222 0.303147 3.069924 0.010095 -0.376744 -0.175021 -0.000000 0.000000 53.224092 -83.496228 58.629456 -0.284397 0.000138 0.001143 1.781778 -12.961581 14.383236 0.000000 0.000000 -0.000000 2.336982 -0.000002 0.000075 0.000000 0.000000 -0.000000 2.336981 -0.000000 0.000000 0.114002 0.000000 -0.004653 8.992948 6.463752 -0.036686 0.022827 0.000000 -0.435571 -0.065665 -4.279840 -0.005884 -10.146929 -3.938759 5.455323 -17.002404 48.945412 37.904746 -0.114002 -0.000000 0.004653 8.031824 -0.071101 -0.416641 -0.022196 0.000000 -0.423533 0.196422 5.719868 -0.020055 -6.158146 3.752126 -6.418083 -17.688663 -50.655770 -40.567120 
0.070509 -0.062302 0.925562 -0.000000 0.000000 -0.688183 0.000000 0.000000 0.000000 -8.797308 3.366897 0.437326 9.977540 0.561264 4.576112 0.000000 0.037222 0.303147 16.723754 -0.721412 -0.255145 0.000000 0.003790 0.217149 6.389549 0.000000 0.000001 0.000000 0.037222 0.303147 2.979552 0.009513 -0.365735 0.175021 -0.000000 0.000000 7.844339 75.559248 -10.143920 0.288264 0.000138 0.001143 2.398449 14.229421 -17.940491 0.000000 0.037222 0.303147 3.037698 0.009887 -0.372849 -0.175021 0.000000 0.000000 52.032798 -83.437857 57.408122 -0.284397 0.000138 0.001143 1.830613 -13.250019 14.444231 0.000000 0.000000 0.000000 2.370924 0.000000 -0.000019 0.000000 0.000000 0.000000 2.370953 -0.000000 0.000000 0.113999 0.000000 -0.004720 9.047106 6.483808 -0.038504 0.022827 0.000000 -0.435571 -0.160475 -4.271409 -0.014368 -10.064289 -3.918568 5.443549 -16.867871 48.868894 37.870800 -0.113999 0.000000 0.004720 8.072996 -0.069631 -0.418887 -0.022196 -0.000000 -0.423533 0.182047 5.706999 -0.018566 -6.353564 3.755606 -6.356586 -17.791603 -50.703120 -40.578926 
